<svg xmlns="http://www.w3.org/2000/svg" width="1280" height="320" viewBox="0 0 1280 320" role="img" aria-label="ThinkandCodeFocus — Studio de developpement logiciel, Senegal">
  <defs>
    <linearGradient id="bg" x1="0" y1="0" x2="1" y2="1">
      <stop offset="0%" stop-color="#080F1A"/>
      <stop offset="55%" stop-color="#0E2739"/>
      <stop offset="100%" stop-color="#09202F"/>
    </linearGradient>
    <radialGradient id="glow" cx="0.5" cy="0.5" r="0.5">
      <stop offset="0%" stop-color="#2DD4BF" stop-opacity="0.28"/>
      <stop offset="100%" stop-color="#2DD4BF" stop-opacity="0"/>
    </radialGradient>
    <radialGradient id="glow2" cx="0.5" cy="0.5" r="0.5">
      <stop offset="0%" stop-color="#F4B740" stop-opacity="0.18"/>
      <stop offset="100%" stop-color="#F4B740" stop-opacity="0"/>
    </radialGradient>
    <linearGradient id="accent" x1="0" y1="0" x2="1" y2="0">
      <stop offset="0%" stop-color="#2DD4BF"/>
      <stop offset="100%" stop-color="#F4B740"/>
    </linearGradient>
    <pattern id="dots" width="26" height="26" patternUnits="userSpaceOnUse">
      <circle cx="1.5" cy="1.5" r="1.5" fill="#FFFFFF" fill-opacity="0.05"/>
    </pattern>
  </defs>

  <rect width="1280" height="320" fill="url(#bg)"/>
  <rect width="1280" height="320" fill="url(#dots)"/>
  <ellipse cx="180" cy="150" rx="420" ry="300" fill="url(#glow)"/>
  <ellipse cx="1120" cy="280" rx="380" ry="260" fill="url(#glow2)"/>

  <g transform="translate(132,150)">
    <circle r="52" fill="none" stroke="#1B4254" stroke-width="1.5"/>
    <circle r="38" fill="none" stroke="url(#accent)" stroke-width="3" stroke-linecap="round" stroke-dasharray="150 89" transform="rotate(-35)"/>
    <circle r="9" fill="#F4B740"/>
    <path d="M-72 -20 L-86 0 L-72 20" fill="none" stroke="#5EEAD4" stroke-width="3.5" stroke-linecap="round" stroke-linejoin="round"/>
    <path d="M72 -20 L86 0 L72 20" fill="none" stroke="#5EEAD4" stroke-width="3.5" stroke-linecap="round" stroke-linejoin="round"/>
  </g>

  <g font-family="'Segoe UI',Helvetica,Arial,sans-serif">
    <text x="264" y="145" font-size="54" font-weight="700" fill="#F1F5F9" letter-spacing="-1">ThinkandCodeFocus</text>
    <rect x="266" y="166" width="76" height="4" rx="2" fill="url(#accent)"/>
    <text x="264" y="206" font-size="21" font-weight="400" fill="#94A3B8">Studio de développement logiciel — Sénégal</text>
    <text x="265" y="250" font-size="13" font-weight="600" fill="#5E7A8A" letter-spacing="3.4">WEB  ·  MOBILE  ·  ERP  ·  E-COMMERCE  ·  IA</text>
  </g>

  <g transform="translate(884,86)">
    <rect width="316" height="148" rx="12" fill="#0A1926" fill-opacity="0.5" stroke="#1B4254" stroke-width="1.5"/>
    <circle cx="22" cy="22" r="4" fill="#F4B740" fill-opacity="0.75"/>
    <circle cx="38" cy="22" r="4" fill="#2DD4BF" fill-opacity="0.65"/>
    <circle cx="54" cy="22" r="4" fill="#5E7A8A" fill-opacity="0.55"/>
    <rect x="22" y="48" width="118" height="7" rx="3.5" fill="#2DD4BF" fill-opacity="0.5"/>
    <rect x="150" y="48" width="68" height="7" rx="3.5" fill="#94A3B8" fill-opacity="0.26"/>
    <rect x="36" y="70" width="88" height="7" rx="3.5" fill="#F4B740" fill-opacity="0.42"/>
    <rect x="134" y="70" width="136" height="7" rx="3.5" fill="#94A3B8" fill-opacity="0.22"/>
    <rect x="36" y="92" width="148" height="7" rx="3.5" fill="#94A3B8" fill-opacity="0.22"/>
    <rect x="22" y="114" width="96" height="7" rx="3.5" fill="#2DD4BF" fill-opacity="0.38"/>
  </g>

  <rect y="316" width="1280" height="4" fill="url(#accent)"/>
</svg>
